<svg xmlns="http://www.w3.org/2000/svg" xmlns:xlink="http://www.w3.org/1999/xlink" width="340" zoomAndPan="magnify" viewBox="0 0 255 44.999999" height="60" preserveAspectRatio="xMidYMid meet" version="1.0"><defs><g/></defs><g fill="#c7c7c7" fill-opacity="1"><g transform="translate(1.980471, 36.524343)"><g><path d="M 1.75 -12.609375 L 16.765625 -18.921875 L 18.125 -14.703125 L 7.15625 -10.4375 L 18.125 -6.1875 L 16.765625 -1.953125 L 1.75 -8.28125 Z M 1.75 -12.609375 "/></g></g></g><g fill="#c7c7c7" fill-opacity="1"><g transform="translate(21.809465, 36.524343)"><g><path d="M 8.234375 -4.4375 C 8.492188 -4.414062 8.789062 -4.394531 9.125 -4.375 C 9.46875 -4.363281 9.875 -4.359375 10.34375 -4.359375 C 13.0625 -4.359375 15.078125 -5.046875 16.390625 -6.421875 C 17.710938 -7.796875 18.375 -9.695312 18.375 -12.125 C 18.375 -14.65625 17.742188 -16.570312 16.484375 -17.875 C 15.222656 -19.175781 13.234375 -19.828125 10.515625 -19.828125 C 10.140625 -19.828125 9.753906 -19.820312 9.359375 -19.8125 C 8.960938 -19.800781 8.585938 -19.773438 8.234375 -19.734375 Z M 23.984375 -12.125 C 23.984375 -10.019531 23.65625 -8.1875 23 -6.625 C 22.351562 -5.070312 21.429688 -3.78125 20.234375 -2.75 C 19.035156 -1.726562 17.570312 -0.960938 15.84375 -0.453125 C 14.125 0.0546875 12.195312 0.3125 10.0625 0.3125 C 9.082031 0.3125 7.9375 0.269531 6.625 0.1875 C 5.320312 0.101562 4.046875 -0.0625 2.796875 -0.3125 L 2.796875 -23.890625 C 4.046875 -24.117188 5.351562 -24.273438 6.71875 -24.359375 C 8.082031 -24.441406 9.253906 -24.484375 10.234375 -24.484375 C 12.304688 -24.484375 14.1875 -24.25 15.875 -23.78125 C 17.5625 -23.3125 19.007812 -22.578125 20.21875 -21.578125 C 21.425781 -20.578125 22.351562 -19.296875 23 -17.734375 C 23.65625 -16.179688 23.984375 -14.3125 23.984375 -12.125 Z M 23.984375 -12.125 "/></g></g></g><g fill="#c7c7c7" fill-opacity="1"><g transform="translate(47.538288, 36.524343)"><g><path d="M 2.796875 0 L 2.796875 -24.203125 L 19.140625 -24.203125 L 19.140625 -19.625 L 8.234375 -19.625 L 8.234375 -14.875 L 17.921875 -14.875 L 17.921875 -10.40625 L 8.234375 -10.40625 L 8.234375 -4.578125 L 19.9375 -4.578125 L 19.9375 0 Z M 2.796875 0 "/></g></g></g><g fill="#c7c7c7" fill-opacity="1"><g transform="translate(68.693869, 36.524343)"><g><path d="M 9.984375 0 C 9.035156 -2.019531 8.09375 -4.125 7.15625 -6.3125 C 6.226562 -8.507812 5.34375 -10.675781 4.5 -12.8125 C 3.664062 -14.957031 2.894531 -17.003906 2.1875 -18.953125 C 1.476562 -20.910156 0.863281 -22.660156 0.34375 -24.203125 L 6.359375 -24.203125 C 6.816406 -22.804688 7.320312 -21.296875 7.875 -19.671875 C 8.425781 -18.054688 8.984375 -16.445312 9.546875 -14.84375 C 10.117188 -13.238281 10.671875 -11.703125 11.203125 -10.234375 C 11.742188 -8.765625 12.25 -7.492188 12.71875 -6.421875 C 13.15625 -7.492188 13.644531 -8.765625 14.1875 -10.234375 C 14.738281 -11.703125 15.300781 -13.238281 15.875 -14.84375 C 16.445312 -16.445312 17.003906 -18.054688 17.546875 -19.671875 C 18.097656 -21.296875 18.601562 -22.804688 19.0625 -24.203125 L 24.859375 -24.203125 C 24.328125 -22.660156 23.710938 -20.910156 23.015625 -18.953125 C 22.316406 -17.003906 21.546875 -14.957031 20.703125 -12.8125 C 19.867188 -10.675781 18.984375 -8.507812 18.046875 -6.3125 C 17.117188 -4.125 16.175781 -2.019531 15.21875 0 Z M 9.984375 0 "/></g></g></g><g fill="#c7c7c7" fill-opacity="1"><g transform="translate(93.899033, 36.524343)"><g><path d="M 4.46875 6.453125 L -0.875 6.453125 L 10.859375 -27.34375 L 16.140625 -27.34375 Z M 4.46875 6.453125 "/></g></g></g><g fill="#c7c7c7" fill-opacity="1"><g transform="translate(109.154796, 36.524343)"><g><path d="M 18.09375 -8.28125 L 3.078125 -1.953125 L 1.71875 -6.1875 L 12.671875 -10.4375 L 1.71875 -14.703125 L 3.078125 -18.921875 L 18.09375 -12.609375 Z M 18.09375 -8.28125 "/></g></g></g><g fill="#ff006e" fill-opacity="1"><g transform="translate(1.964438, 34.166381)"><g><path d="M 1.75 -12.609375 L 16.765625 -18.921875 L 18.125 -14.703125 L 7.15625 -10.4375 L 18.125 -6.1875 L 16.765625 -1.953125 L 1.75 -8.28125 Z M 1.75 -12.609375 "/></g></g></g><g fill="#ff006e" fill-opacity="1"><g transform="translate(21.797794, 34.166381)"><g><path d="M 8.234375 -4.4375 C 8.492188 -4.414062 8.789062 -4.394531 9.125 -4.375 C 9.46875 -4.363281 9.875 -4.359375 10.34375 -4.359375 C 13.0625 -4.359375 15.078125 -5.046875 16.390625 -6.421875 C 17.710938 -7.796875 18.375 -9.695312 18.375 -12.125 C 18.375 -14.65625 17.742188 -16.570312 16.484375 -17.875 C 15.222656 -19.175781 13.234375 -19.828125 10.515625 -19.828125 C 10.140625 -19.828125 9.753906 -19.820312 9.359375 -19.8125 C 8.960938 -19.800781 8.585938 -19.773438 8.234375 -19.734375 Z M 23.984375 -12.125 C 23.984375 -10.019531 23.65625 -8.1875 23 -6.625 C 22.351562 -5.070312 21.429688 -3.78125 20.234375 -2.75 C 19.035156 -1.726562 17.570312 -0.960938 15.84375 -0.453125 C 14.125 0.0546875 12.195312 0.3125 10.0625 0.3125 C 9.082031 0.3125 7.9375 0.269531 6.625 0.1875 C 5.320312 0.101562 4.046875 -0.0625 2.796875 -0.3125 L 2.796875 -23.890625 C 4.046875 -24.117188 5.351562 -24.273438 6.71875 -24.359375 C 8.082031 -24.441406 9.253906 -24.484375 10.234375 -24.484375 C 12.304688 -24.484375 14.1875 -24.25 15.875 -23.78125 C 17.5625 -23.3125 19.007812 -22.578125 20.21875 -21.578125 C 21.425781 -20.578125 22.351562 -19.296875 23 -17.734375 C 23.65625 -16.179688 23.984375 -14.3125 23.984375 -12.125 Z M 23.984375 -12.125 "/></g></g></g><g fill="#ff006e" fill-opacity="1"><g transform="translate(47.532273, 34.166381)"><g><path d="M 2.796875 0 L 2.796875 -24.203125 L 19.140625 -24.203125 L 19.140625 -19.625 L 8.234375 -19.625 L 8.234375 -14.875 L 17.921875 -14.875 L 17.921875 -10.40625 L 8.234375 -10.40625 L 8.234375 -4.578125 L 19.9375 -4.578125 L 19.9375 0 Z M 2.796875 0 "/></g></g></g><g fill="#ff006e" fill-opacity="1"><g transform="translate(68.692511, 34.166381)"><g><path d="M 9.984375 0 C 9.035156 -2.019531 8.09375 -4.125 7.15625 -6.3125 C 6.226562 -8.507812 5.34375 -10.675781 4.5 -12.8125 C 3.664062 -14.957031 2.894531 -17.003906 2.1875 -18.953125 C 1.476562 -20.910156 0.863281 -22.660156 0.34375 -24.203125 L 6.359375 -24.203125 C 6.816406 -22.804688 7.320312 -21.296875 7.875 -19.671875 C 8.425781 -18.054688 8.984375 -16.445312 9.546875 -14.84375 C 10.117188 -13.238281 10.671875 -11.703125 11.203125 -10.234375 C 11.742188 -8.765625 12.25 -7.492188 12.71875 -6.421875 C 13.15625 -7.492188 13.644531 -8.765625 14.1875 -10.234375 C 14.738281 -11.703125 15.300781 -13.238281 15.875 -14.84375 C 16.445312 -16.445312 17.003906 -18.054688 17.546875 -19.671875 C 18.097656 -21.296875 18.601562 -22.804688 19.0625 -24.203125 L 24.859375 -24.203125 C 24.328125 -22.660156 23.710938 -20.910156 23.015625 -18.953125 C 22.316406 -17.003906 21.546875 -14.957031 20.703125 -12.8125 C 19.867188 -10.675781 18.984375 -8.507812 18.046875 -6.3125 C 17.117188 -4.125 16.175781 -2.019531 15.21875 0 Z M 9.984375 0 "/></g></g></g><g fill="#ff006e" fill-opacity="1"><g transform="translate(93.90322, 34.166381)"><g><path d="M 4.46875 6.453125 L -0.875 6.453125 L 10.859375 -27.34375 L 16.140625 -27.34375 Z M 4.46875 6.453125 "/></g></g></g><g fill="#ff006e" fill-opacity="1"><g transform="translate(109.162336, 34.166381)"><g><path d="M 18.09375 -8.28125 L 3.078125 -1.953125 L 1.71875 -6.1875 L 12.671875 -10.4375 L 1.71875 -14.703125 L 3.078125 -18.921875 L 18.09375 -12.609375 Z M 18.09375 -8.28125 "/></g></g></g><g fill="#c7c7c7" fill-opacity="1"><g transform="translate(130.970499, 36.967646)"><g><path d="M 1.75 -12.609375 L 16.765625 -18.921875 L 18.125 -14.703125 L 7.15625 -10.4375 L 18.125 -6.1875 L 16.765625 -1.953125 L 1.75 -8.28125 Z M 1.75 -12.609375 "/></g></g></g><g fill="#c7c7c7" fill-opacity="1"><g transform="translate(150.803856, 36.967646)"><g><path d="M 10.0625 -24.484375 C 13.664062 -24.484375 16.429688 -23.847656 18.359375 -22.578125 C 20.296875 -21.304688 21.265625 -19.226562 21.265625 -16.34375 C 21.265625 -13.4375 20.285156 -11.335938 18.328125 -10.046875 C 16.378906 -8.753906 13.585938 -8.109375 9.953125 -8.109375 L 8.234375 -8.109375 L 8.234375 0 L 2.796875 0 L 2.796875 -23.859375 C 3.984375 -24.085938 5.238281 -24.25 6.5625 -24.34375 C 7.894531 -24.4375 9.0625 -24.484375 10.0625 -24.484375 Z M 10.40625 -19.828125 C 10.007812 -19.828125 9.617188 -19.816406 9.234375 -19.796875 C 8.847656 -19.773438 8.515625 -19.753906 8.234375 -19.734375 L 8.234375 -12.75 L 9.953125 -12.75 C 11.835938 -12.75 13.253906 -13.003906 14.203125 -13.515625 C 15.160156 -14.023438 15.640625 -14.976562 15.640625 -16.375 C 15.640625 -17.050781 15.515625 -17.609375 15.265625 -18.046875 C 15.023438 -18.492188 14.675781 -18.847656 14.21875 -19.109375 C 13.769531 -19.378906 13.21875 -19.566406 12.5625 -19.671875 C 11.914062 -19.773438 11.195312 -19.828125 10.40625 -19.828125 Z M 10.40625 -19.828125 "/></g></g></g><g fill="#c7c7c7" fill-opacity="1"><g transform="translate(173.290974, 36.967646)"><g><path d="M 19 0 C 18.738281 -0.832031 18.453125 -1.691406 18.140625 -2.578125 C 17.828125 -3.460938 17.519531 -4.347656 17.21875 -5.234375 L 7.78125 -5.234375 C 7.476562 -4.347656 7.171875 -3.460938 6.859375 -2.578125 C 6.546875 -1.691406 6.257812 -0.832031 6 0 L 0.34375 0 C 1.257812 -2.601562 2.125 -5.007812 2.9375 -7.21875 C 3.75 -9.4375 4.546875 -11.519531 5.328125 -13.46875 C 6.109375 -15.425781 6.875 -17.285156 7.625 -19.046875 C 8.382812 -20.804688 9.171875 -22.523438 9.984375 -24.203125 L 15.1875 -24.203125 C 15.976562 -22.523438 16.757812 -20.804688 17.53125 -19.046875 C 18.300781 -17.285156 19.070312 -15.425781 19.84375 -13.46875 C 20.625 -11.519531 21.421875 -9.4375 22.234375 -7.21875 C 23.054688 -5.007812 23.921875 -2.601562 24.828125 0 Z M 12.46875 -18.71875 C 12.351562 -18.363281 12.175781 -17.882812 11.9375 -17.28125 C 11.707031 -16.675781 11.441406 -15.976562 11.140625 -15.1875 C 10.835938 -14.394531 10.503906 -13.519531 10.140625 -12.5625 C 9.785156 -11.613281 9.421875 -10.613281 9.046875 -9.5625 L 15.921875 -9.5625 C 15.546875 -10.613281 15.179688 -11.613281 14.828125 -12.5625 C 14.484375 -13.519531 14.15625 -14.394531 13.84375 -15.1875 C 13.53125 -15.976562 13.253906 -16.675781 13.015625 -17.28125 C 12.785156 -17.882812 12.601562 -18.363281 12.46875 -18.71875 Z M 12.46875 -18.71875 "/></g></g></g><g fill="#c7c7c7" fill-opacity="1"><g transform="translate(198.466769, 36.967646)"><g><path d="M 20.75 -24.203125 L 20.75 -19.5625 L 13.4375 -19.5625 L 13.4375 0 L 8 0 L 8 -19.5625 L 0.703125 -19.5625 L 0.703125 -24.203125 Z M 20.75 -24.203125 "/></g></g></g><g fill="#c7c7c7" fill-opacity="1"><g transform="translate(219.906349, 36.967646)"><g><path d="M 4.46875 6.453125 L -0.875 6.453125 L 10.859375 -27.34375 L 16.140625 -27.34375 Z M 4.46875 6.453125 "/></g></g></g><g fill="#c7c7c7" fill-opacity="1"><g transform="translate(235.165465, 36.967646)"><g><path d="M 18.09375 -8.28125 L 3.078125 -1.953125 L 1.71875 -6.1875 L 12.671875 -10.4375 L 1.71875 -14.703125 L 3.078125 -18.921875 L 18.09375 -12.609375 Z M 18.09375 -8.28125 "/></g></g></g><g fill="#ff006e" fill-opacity="1"><g transform="translate(130.970499, 33.700968)"><g><path d="M 1.75 -12.609375 L 16.765625 -18.921875 L 18.125 -14.703125 L 7.15625 -10.4375 L 18.125 -6.1875 L 16.765625 -1.953125 L 1.75 -8.28125 Z M 1.75 -12.609375 "/></g></g></g><g fill="#ff006e" fill-opacity="1"><g transform="translate(150.803856, 33.700968)"><g><path d="M 10.0625 -24.484375 C 13.664062 -24.484375 16.429688 -23.847656 18.359375 -22.578125 C 20.296875 -21.304688 21.265625 -19.226562 21.265625 -16.34375 C 21.265625 -13.4375 20.285156 -11.335938 18.328125 -10.046875 C 16.378906 -8.753906 13.585938 -8.109375 9.953125 -8.109375 L 8.234375 -8.109375 L 8.234375 0 L 2.796875 0 L 2.796875 -23.859375 C 3.984375 -24.085938 5.238281 -24.25 6.5625 -24.34375 C 7.894531 -24.4375 9.0625 -24.484375 10.0625 -24.484375 Z M 10.40625 -19.828125 C 10.007812 -19.828125 9.617188 -19.816406 9.234375 -19.796875 C 8.847656 -19.773438 8.515625 -19.753906 8.234375 -19.734375 L 8.234375 -12.75 L 9.953125 -12.75 C 11.835938 -12.75 13.253906 -13.003906 14.203125 -13.515625 C 15.160156 -14.023438 15.640625 -14.976562 15.640625 -16.375 C 15.640625 -17.050781 15.515625 -17.609375 15.265625 -18.046875 C 15.023438 -18.492188 14.675781 -18.847656 14.21875 -19.109375 C 13.769531 -19.378906 13.21875 -19.566406 12.5625 -19.671875 C 11.914062 -19.773438 11.195312 -19.828125 10.40625 -19.828125 Z M 10.40625 -19.828125 "/></g></g></g><g fill="#ff006e" fill-opacity="1"><g transform="translate(173.290974, 33.700968)"><g><path d="M 19 0 C 18.738281 -0.832031 18.453125 -1.691406 18.140625 -2.578125 C 17.828125 -3.460938 17.519531 -4.347656 17.21875 -5.234375 L 7.78125 -5.234375 C 7.476562 -4.347656 7.171875 -3.460938 6.859375 -2.578125 C 6.546875 -1.691406 6.257812 -0.832031 6 0 L 0.34375 0 C 1.257812 -2.601562 2.125 -5.007812 2.9375 -7.21875 C 3.75 -9.4375 4.546875 -11.519531 5.328125 -13.46875 C 6.109375 -15.425781 6.875 -17.285156 7.625 -19.046875 C 8.382812 -20.804688 9.171875 -22.523438 9.984375 -24.203125 L 15.1875 -24.203125 C 15.976562 -22.523438 16.757812 -20.804688 17.53125 -19.046875 C 18.300781 -17.285156 19.070312 -15.425781 19.84375 -13.46875 C 20.625 -11.519531 21.421875 -9.4375 22.234375 -7.21875 C 23.054688 -5.007812 23.921875 -2.601562 24.828125 0 Z M 12.46875 -18.71875 C 12.351562 -18.363281 12.175781 -17.882812 11.9375 -17.28125 C 11.707031 -16.675781 11.441406 -15.976562 11.140625 -15.1875 C 10.835938 -14.394531 10.503906 -13.519531 10.140625 -12.5625 C 9.785156 -11.613281 9.421875 -10.613281 9.046875 -9.5625 L 15.921875 -9.5625 C 15.546875 -10.613281 15.179688 -11.613281 14.828125 -12.5625 C 14.484375 -13.519531 14.15625 -14.394531 13.84375 -15.1875 C 13.53125 -15.976562 13.253906 -16.675781 13.015625 -17.28125 C 12.785156 -17.882812 12.601562 -18.363281 12.46875 -18.71875 Z M 12.46875 -18.71875 "/></g></g></g><g fill="#ff006e" fill-opacity="1"><g transform="translate(198.466769, 33.700968)"><g><path d="M 20.75 -24.203125 L 20.75 -19.5625 L 13.4375 -19.5625 L 13.4375 0 L 8 0 L 8 -19.5625 L 0.703125 -19.5625 L 0.703125 -24.203125 Z M 20.75 -24.203125 "/></g></g></g><g fill="#ff006e" fill-opacity="1"><g transform="translate(219.906349, 33.700968)"><g><path d="M 4.46875 6.453125 L -0.875 6.453125 L 10.859375 -27.34375 L 16.140625 -27.34375 Z M 4.46875 6.453125 "/></g></g></g><g fill="#ff006e" fill-opacity="1"><g transform="translate(235.165465, 33.700968)"><g><path d="M 18.09375 -8.28125 L 3.078125 -1.953125 L 1.71875 -6.1875 L 12.671875 -10.4375 L 1.71875 -14.703125 L 3.078125 -18.921875 L 18.09375 -12.609375 Z M 18.09375 -8.28125 "/></g></g></g></svg>